# xmcd CD database file
#
# Track frame offsets:
#	150
#	13937
#	26042
#	38177
#	50935
#	63860
#	77282
#	89950
#	100530
#	113785
#	125370
#	137642
#	149682
#	164117
#	177997
#	192282
#	203692
#	215112
#	225462
#	235150
#
# Disc length: 3286 seconds
#
# Revision: 0
# Processed by: cddbd v1.5.1PL2 Copyright (c) Steve Scherf et al.
# Submitted via: CDex 1.51
#
DISCID=250cd414
DTITLE=T-Bone Walker - The Very Best of T-Bone Walker
DYEAR=1900
DGENRE=Blues
TTITLE0=Call It Stormy Monday
TTITLE1=Dream Girl Blues
TTITLE2=Too Much Trouble Blues 
TTITLE3=Hypin' Woman Blues
TTITLE4=Prison Blues
TTITLE5=Hometown Blues
TTITLE6=West Side Baby
TTITLE7=The Sun Went Down
TTITLE8=You Don't Love Me
TTITLE9=The Hustle Is On
TTITLE10=I Get So Weary
TTITLE11=Tell Me What's The Reason
TTITLE12=Cold Cold Feeling
TTITLE13=Get These Blues Off Me
TTITLE14=Through With Women
TTITLE15=When The Sun Goes Down
TTITLE16=Wanderin' Heart
TTITLE17=I'll Always Be In Love With You
TTITLE18=Hard Way
TTITLE19=Strugglin' Blues
EXTD=
EXTT0=
EXTT1=
EXTT2=
EXTT3=
EXTT4=
EXTT5=
EXTT6=
EXTT7=
EXTT8=
EXTT9=
EXTT10=
EXTT11=
EXTT12=
EXTT13=
EXTT14=
EXTT15=
EXTT16=
EXTT17=
EXTT18=
EXTT19=
PLAYORDER=
